<?xml version="1.0" encoding="UTF-8" standalone="no"?>
<svg
   id="svg8"
   version="1.1"
   viewBox="0 0 100 99.999997"
   height="100mm"
   width="100mm"
   sodipodi:docname="icon.svg"
   inkscape:version="1.4.3 (0d15f75042, 2025-12-25)"
   xmlns:inkscape="http://www.inkscape.org/namespaces/inkscape"
   xmlns:sodipodi="http://sodipodi.sourceforge.net/DTD/sodipodi-0.dtd"
   xmlns="http://www.w3.org/2000/svg"
   xmlns:svg="http://www.w3.org/2000/svg"
   xmlns:rdf="http://www.w3.org/1999/02/22-rdf-syntax-ns#"
   xmlns:cc="http://creativecommons.org/ns#"
   xmlns:dc="http://purl.org/dc/elements/1.1/">
  <sodipodi:namedview
     id="namedview1"
     pagecolor="#ffffff"
     bordercolor="#000000"
     borderopacity="0.25"
     inkscape:showpageshadow="2"
     inkscape:pageopacity="0.0"
     inkscape:pagecheckerboard="0"
     inkscape:deskcolor="#d1d1d1"
     inkscape:document-units="mm"
     inkscape:zoom="0.90509668"
     inkscape:cx="61.319416"
     inkscape:cy="24.859223"
     inkscape:window-width="1810"
     inkscape:window-height="962"
     inkscape:window-x="0"
     inkscape:window-y="0"
     inkscape:window-maximized="0"
     inkscape:current-layer="svg8" />
  <metadata
     id="metadata8">
    <rdf:RDF>
      <cc:Work
         rdf:about="">
        <dc:format>image/svg+xml</dc:format>
        <dc:type
           rdf:resource="http://purl.org/dc/dcmitype/StillImage" />
      </cc:Work>
    </rdf:RDF>
  </metadata>
  <defs
     id="defs8" />
  <g
     transform="translate(-36.097241,-79.85368)"
     id="layer1">
    <path
       style="color:#000000;font-style:normal;font-variant:normal;font-weight:normal;font-stretch:normal;font-size:medium;line-height:normal;font-family:sans-serif;font-variant-ligatures:normal;font-variant-position:normal;font-variant-caps:normal;font-variant-numeric:normal;font-variant-alternates:normal;font-feature-settings:normal;text-indent:0;text-align:start;text-decoration:none;text-decoration-line:none;text-decoration-style:solid;text-decoration-color:#000000;letter-spacing:normal;word-spacing:normal;text-transform:none;writing-mode:lr-tb;direction:ltr;text-orientation:mixed;dominant-baseline:auto;baseline-shift:baseline;text-anchor:start;white-space:normal;shape-padding:0;clip-rule:nonzero;display:inline;overflow:visible;visibility:visible;opacity:1;isolation:auto;mix-blend-mode:normal;color-interpolation:sRGB;color-interpolation-filters:linearRGB;solid-color:#000000;solid-opacity:1;vector-effect:none;fill:#3aa57c;fill-opacity:1;fill-rule:nonzero;stroke:none;stroke-width:1.44562;stroke-linecap:round;stroke-linejoin:round;stroke-miterlimit:4;stroke-dasharray:none;stroke-dashoffset:0;stroke-opacity:1;marker:none;color-rendering:auto;image-rendering:auto;shape-rendering:auto;text-rendering:auto;enable-background:accumulate"
       d="m 44.723019,89.871882 c -2.203458,0 -4.000791,1.796293 -4.000791,3.999753 v 1.23249 c 0,2.20345 1.797333,3.99924 4.000791,3.99924 h 0.900203 v 62.524355 c 3.9e-5,0.39918 0.323773,0.72291 0.722952,0.72295 h 31.491104 c 0.413229,4.19365 3.959503,7.48481 8.259445,7.48481 4.299929,0 7.847076,-3.29116 8.260477,-7.48481 h 30.94436 c 0.39918,-4e-5 0.72291,-0.32377 0.72295,-0.72295 V 99.103365 h 0.91778 c 2.20346,0 4.00079,-1.79579 4.00079,-3.99924 v -1.23249 c 0,-2.20346 -1.79733,-3.999753 -4.00079,-3.999753 z m 0,1.445903 h 82.219271 c 1.4276,0 2.5554,1.12626 2.5554,2.55385 v 1.23249 c 0,1.42758 -1.1278,2.55385 -2.5554,2.55385 h -1.64073 -78.955386 -1.623155 c -1.427591,0 -2.555399,-1.12627 -2.555399,-2.55385 v -1.23249 c 0,-1.42759 1.127808,-2.55385 2.555399,-2.55385 z m 34.770487,71.032885 h 13.207463 c -0.401838,3.29625 -3.196537,5.83633 -6.604246,5.83633 -3.407722,0 -6.201566,-2.54008 -6.603217,-5.83633 z"
       id="rect4550"
       sodipodi:nodetypes="ssssccccsccccssssssssssccssssccsc" />
  </g>
  <path
     d="m 73.58486,71.83024 q -0.717277,0.358639 -1.434553,0.358639 -0.627617,0 -1.344894,-0.08966 -0.627617,-0.179319 -1.344893,-0.268979 -0.627617,-0.179319 -1.255234,-0.179319 -0.717277,0.08966 -1.524213,0.268979 -0.717277,0.08966 -1.434553,0.179319 -1.344894,-0.179319 -2.15183,-0.08966 -0.717276,0 -1.524213,0.08966 -0.717276,0 -1.344893,0.179319 -0.627617,0.08966 -1.165575,0.448298 -0.448297,-0.717276 -1.434553,-0.537957 -0.896596,0.08966 -1.882851,0.179319 -0.717276,0 -1.434553,0.08966 -0.717277,0 -1.344894,0.08966 -0.448297,0 -0.896595,0.08966 -0.448298,0.179319 -0.806936,-0.17932 0.448297,-1.075914 1.165574,-1.075914 0.806936,0 1.524213,0 0.717276,0 1.255234,-0.08966 0.627617,-0.179319 0.717276,-0.806936 0,-0.08966 -0.268978,-0.627617 -0.17932,-0.537958 -0.537958,-1.075915 -0.268979,-0.537957 -0.627617,-0.806936 -0.358638,-0.358638 -0.717276,-0.08966 -0.17932,-0.358638 -0.537958,-0.448298 -0.358638,-0.179319 -0.537957,-0.627617 -0.08966,-1.703532 -0.896596,-2.241489 -0.806936,-0.627617 -1.075915,-1.882851 -0.717276,-0.896596 -0.896596,-1.075915 -0.179319,-0.268979 -0.179319,-0.717276 -0.717276,-0.358639 -1.255234,-0.806937 -0.537957,-0.537957 -0.627617,-1.524212 -0.358638,0 -0.537957,0.179319 -0.179319,0.179319 -0.448298,0 -0.537957,-1.075915 -0.358638,-1.255234 0.268978,-0.179319 0.448298,-0.537958 -0.17932,-0.448297 -0.448298,-0.806936 -0.179319,-0.358638 -0.448298,-0.627617 -0.986255,0.268979 -0.986255,1.524213 -0.627617,0.08966 -0.806937,0.537957 -0.08966,0.448298 -0.627617,0.627617 0,0.986256 -0.537957,1.434554 -0.537957,0.448297 -0.448298,1.165574 -0.896596,0.627617 -1.434553,1.613872 -0.448298,0.896596 -0.986255,1.882851 -0.896596,1.165575 -1.255234,1.524213 -0.268979,0.358638 -0.448298,0.806936 0.896596,0 0.448298,0.627617 -0.448298,0.627617 -0.448298,1.165575 0,0.717276 0.358638,1.075915 0.358638,0.358638 0.179319,1.075914 0.179319,0.268979 0.537958,0.268979 0.358638,-0.08966 0.537957,0.179319 0,0.717277 0.179319,1.075915 0.358639,0 0.627617,-0.08966 0.268979,-0.08966 0.537958,0.08966 0,0.448298 0.179319,0.627617 0.179319,0.179319 0.358638,0.627617 -0.986255,0.717277 -2.15183,0.358638 -1.075914,-0.358638 -2.241489,-0.179319 -1.165574,0.358639 -1.524213,0.179319 -0.358638,-0.08966 -0.717276,0.08966 0.179319,-0.358638 -0.08966,-0.537957 -0.268978,-0.17932 -0.717276,-0.268979 -0.448298,0 -0.896596,0.08966 -0.448298,0.08966 -0.537957,0.358639 -0.717277,-0.358639 -1.703532,-0.358639 -0.896596,0.08966 -2.15183,0.17932 -1.075915,0 -2.06217,0.268978 -0.986255,0.268979 -1.434553,-0.717276 0.806936,-0.717277 1.255234,-0.806936 0.448298,-0.17932 0.896595,-0.358639 0.448298,-0.627617 1.255234,-0.717276 0.896596,-0.179319 1.075915,-1.075915 1.344894,-0.448298 2.24149,-1.255234 0.986255,-0.896596 2.151829,-1.613873 2.06217,-2.331148 4.034681,-4.662297 2.06217,-2.331149 3.586383,-5.200255 0.448298,-0.17932 0.537957,-0.537958 0.179319,-0.358638 0.627617,-0.448298 0.268979,-0.627617 0.627617,-1.165574 0.358639,-0.627617 0.537958,-1.165575 0.179319,-0.537957 0.179319,-1.075914 0,-0.627617 -0.448298,-1.344894 -0.627617,-1.075915 -1.524213,-1.972511 -0.896595,-0.986255 -1.075915,-2.510468 -0.179319,-0.448297 -0.448297,-0.896595 -0.268979,-0.448298 -0.448298,-0.986256 -0.896596,0.448298 -1.075915,-0.627617 0.448298,-0.627617 0.358638,-0.806936 -0.08966,-0.179319 0,-0.448298 -0.537957,0 -0.806936,0.17932 -0.268979,0.08966 -0.717277,-0.17932 0.268979,-0.806936 -0.627617,-0.806936 0.08966,-0.717276 0.896596,-1.075915 -0.08966,-0.717276 -1.255234,-0.717276 -0.08966,-0.268979 -0.179319,-0.537958 -0.08966,-0.268978 -0.448298,-0.358638 -0.358638,-1.434553 -0.896596,-2.510468 -0.448297,-1.075915 -1.703531,-1.524213 -0.17932,-0.448297 -0.448298,-0.717276 -0.268979,-0.268979 -0.448298,-0.627617 0,-0.448298 0.179319,-0.448298 0.268979,-0.08966 0.268979,-0.537957 -0.717277,-0.17932 -0.986256,-0.717277 -0.268978,-0.537957 -0.627617,-0.986255 0.17932,-0.537958 -0.358638,-0.896596 -0.448298,-0.358638 -0.986255,-0.717277 -1.255234,0.08966 -2.689787,0.358639 -1.524213,0.179319 -2.510468,-0.627617 0.537957,-1.344894 0.358638,-1.434553 -0.268979,-0.17932 -0.08966,-0.358639 2.062171,-0.08966 4.30366,0 2.241489,0 4.034681,-0.179319 0.358638,0.179319 1.075914,0.268979 0.806937,0 1.703532,0 0.896596,0 1.703532,0 0.806936,-0.08966 1.344894,-0.268979 0.268978,-0.08966 0.537957,-0.268979 0.268979,-0.179319 0.627617,-0.179319 0.358638,-0.08966 0.717277,0 0.358638,0.08966 0.806936,0.08966 0.448298,-0.08966 0.986255,-0.179319 0.537958,-0.179319 0.986255,-0.268979 0.986256,0 2.15183,0.179319 1.165575,0.08966 2.420809,-0.268979 0.268978,0.448298 0.896595,0.717277 0.627617,0.179319 0.627617,0.537957 -0.179319,0.17932 -0.448298,0.448298 -0.268978,0.179319 -0.627617,0.358639 -0.358638,0.179319 -0.717276,0.179319 -0.268979,0 -0.537958,-0.358639 -1.524212,0.268979 -1.97251,0.717277 -0.448298,0.358638 -1.165575,0.268979 -0.448297,0.806936 -0.358638,1.613872 0.08966,0.806936 0.448298,1.613872 0.448298,0.806936 0.986255,1.524213 0.537958,0.717277 0.986256,1.165574 0.717276,1.524213 1.613872,2.779447 0.896596,1.165575 1.882851,2.420809 -0.08966,0.717276 0.268979,1.344893 0.358638,0.627617 0.806936,1.075915 0.627617,-0.537957 1.075915,-1.255234 0.537957,-0.717277 0.986255,-1.434553 0.448298,-0.806936 0.896596,-1.524213 0.448297,-0.717276 1.075914,-1.255234 0.268979,-0.717276 0.537958,-1.524213 0.358638,-0.806936 0.986255,-1.344893 -0.179319,-0.448298 0,-0.806936 0.268979,-0.358639 0.448298,-0.717277 -0.179319,-0.806936 0.08966,-1.344893 0.358638,-0.627617 0.179319,-1.344894 -0.08966,-0.627617 -0.537958,-0.986255 -0.448298,-0.358639 -0.986255,-0.627617 -0.537957,-0.268979 -1.075915,-0.537958 -0.448298,-0.358638 -0.537957,-1.075915 1.434553,-0.179319 3.138085,0.268979 1.793191,0.358638 3.586383,-0.268979 0.537957,0.17932 1.524212,0.268979 1.075915,0.08966 2.062171,0 0.717276,0 1.434553,-0.268979 0.717276,-0.358638 1.165574,-0.179319 0.448298,0.08966 0.717277,0.448298 0.268978,0.268979 0.717276,0.179319 -1.255234,1.165575 -2.420808,1.165575 -1.075915,0 -1.882851,0.268978 -0.896596,0.268979 -1.524213,0.896596 -0.537957,0.627617 -1.075915,1.344894 -0.448298,0.627617 -0.986255,1.344893 -0.448298,0.627617 -1.165574,1.075915 -0.17932,0.717277 -0.537958,1.255234 -0.358638,0.448298 -0.537957,1.255234 -0.806936,0.627617 -1.344894,1.434553 -0.537957,0.806936 -1.075915,1.703532 -0.268979,0.08966 -0.448298,0.268979 -0.179319,0.179319 -0.358638,0.358638 0.08966,0.448298 -0.268979,0.986255 -0.358638,0.537958 -0.896595,0.717277 0.358638,0.448298 -0.17932,0.627617 -0.448297,0.08966 -0.268978,0.537957 0.896595,0.17932 1.165574,0.986256 -0.08966,0.448298 -0.537957,0.448298 -0.358639,0 -0.268979,0.537957 -0.448298,-0.179319 -0.806936,0.08966 -0.358638,0.268978 -0.448298,0.717276 0.806936,-0.179319 1.344894,0.537958 0.537957,0.717276 -0.17932,1.434553 0.17932,0.627617 0.268979,1.255234 0.179319,0.627617 0.806936,0.806936 0.268979,0.806936 0.717277,1.524213 0.448298,0.717276 1.165574,1.165574 0.358639,1.165574 0.896596,2.241489 0.537958,0.986256 1.613872,1.434553 0.358639,0.806937 0.17932,0.806937 -0.17932,0 -0.17932,0.179319 0.448298,0.986255 0.896596,2.151829 0.448298,1.165575 1.255234,1.882851 0.179319,0.806937 0.358638,0.896596 0.268979,0.08966 0.448298,0.268979 1.165575,0 1.165575,0.537957 0,0.448298 -0.448298,0.717277 0.179319,0.717276 0.358638,1.165574 0.268979,0.358639 0.986255,0.717277 -0.08966,0.627617 0.358639,1.165574 0.537957,0.537958 0.717276,1.165575 0.896596,0.179319 1.972511,0.08966 1.075915,-0.08966 1.613872,0.448298 -0.627617,0.179319 -0.717276,0 -0.08966,-0.179319 -0.268979,-0.179319 -0.537958,0.717277 -0.179319,1.165575 0.358638,0.448297 1.075915,0.717276 0.806936,0.179319 1.703531,0.179319 0.896596,-0.08966 1.524213,-0.358638 0.179319,0.448298 0.358638,0.896596 0.268979,0.448298 0.08966,0.896595 z M 62.825711,29.062625 q -0.986255,-0.08966 -2.06217,0.358638 0.08966,0.448298 -0.08966,0.627617 -0.08966,0.179319 -0.179319,0.448298 0.358638,0.358638 0.627617,0.179319 0.358638,-0.268979 0.627617,-0.448298 0.358638,-0.268979 0.627617,-0.448298 0.358638,-0.268978 0.448297,-0.717276 z m -2.151829,2.600127 q -0.537958,-0.08966 -0.986256,-0.358638 -0.179319,0.537957 -0.358638,1.075915 -0.08966,0.537957 0.08966,0.986255 0.358638,-0.358638 0.717276,-0.717276 0.358639,-0.448298 0.537958,-0.986256 z m -15.062808,4.034681 q -0.08966,-0.448298 -0.717277,-0.358638 -0.537957,0.08966 -0.448298,0.537957 0.806936,0 1.075915,0 0.268979,0 0.08966,-0.179319 z M 44.35584,28.703986 q -0.537958,0.08966 -1.165575,0.17932 -0.537957,0 -0.986255,0.179319 -0.537958,0.717276 -0.806936,1.255234 -0.179319,0.448298 -0.986256,0.358638 -0.627617,0.627617 -0.896595,0.627617 -0.717277,0.806936 -1.793192,1.255234 -1.075915,0.358638 -1.524212,1.344894 0.537957,0 0.717276,-0.17932 0.179319,-0.179319 0.358638,-0.358638 0.268979,0.179319 0.448298,0.08966 0.268979,-0.179319 0.717277,-0.179319 1.344893,-0.896596 2.241489,-1.524213 0.896596,-0.717277 2.15183,-1.165575 0.268979,-0.537957 0.717276,-0.896595 0.448298,-0.448298 0.806937,-0.986256 z m -0.448298,6.993447 q -0.179319,-0.537957 -0.627617,-0.268979 -0.358639,0.179319 -0.627617,0.08966 0,0.358638 0.537957,0.358638 0.537958,-0.08966 0.717277,-0.179319 z m 0.448298,-2.420808 h -1.075915 q -0.179319,0.627617 -0.806936,0.806936 -0.627617,0.08966 -1.344894,0.268978 -0.08966,0.717277 -0.537957,0.806937 -0.358639,0 -0.537958,0.537957 0.717277,-0.268979 0.986255,-0.179319 0.268979,0.08966 0.627617,0.08966 0.896596,-0.537957 0.717277,-0.627617 -0.08966,-0.08966 -0.179319,-0.358638 l 0.986255,0.179319 q 0.08966,-0.806936 0.448298,-0.896595 0.358638,-0.08966 0.717277,-0.627617 z m -4.751958,-3.676043 q -0.268978,-0.448298 -0.717276,-0.08966 -0.358639,0.268978 -0.986256,0.179319 -0.358638,0.627617 -1.255234,0.806936 -0.896595,0.179319 -1.524212,0.717276 1.613872,0.268979 1.97251,-0.358638 0.627617,-0.179319 0.896596,-0.358638 0.268979,-0.179319 0.537957,-0.268979 0.358639,-0.08966 0.627617,-0.179319 0.358639,-0.08966 0.448298,-0.448298 z m -4.931276,0 q -0.448298,-0.179319 -0.986255,-0.358638 -0.537958,-0.179319 -0.806937,0.268979 0.448298,-0.08966 0.986256,0.268978 0.537957,0.268979 0.806936,-0.179319 z m 16.138723,14.255872 q -0.448298,-0.179319 -0.537958,-0.717277 -0.08966,-0.627617 -0.806936,-0.627617 -0.537957,0.358639 -0.717276,0.268979 -0.17932,-0.179319 -0.358639,0.179319 -0.179319,0.268979 -0.627617,0.627617 -0.358638,0.268979 -0.896595,0.268979 -0.17932,0.806936 -0.358639,0.896596 -0.08966,0 -0.537957,0 -0.08966,0.627617 -0.179319,0.717276 -0.08966,0.08966 -0.268979,0.179319 -0.08966,0.08966 -0.268979,0.17932 -0.179319,0.08966 -0.08966,0.358638 0.179319,0 0.627617,0 0.448298,-0.08966 0.806936,0.08966 0.986255,-0.358638 1.524213,-0.537957 0.627617,-0.179319 1.165574,-0.358638 0.627617,-0.268979 1.075915,-0.627617 0.448298,-0.358639 0.448298,-0.896596 z m -1.882851,-1.882851 q -0.806936,-0.627617 -1.165575,-0.179319 -0.358638,0.358638 -0.986255,-0.08966 0.717277,-0.268978 1.165574,-0.448298 0.537958,-0.179319 0.806937,-0.896595 -0.448298,-0.806936 -0.986256,-1.524213 -0.537957,-0.717277 -0.986255,-1.434553 -0.448298,0 -0.717277,0.179319 -0.268978,0.08966 -0.537957,0.268979 -0.179319,0.179319 -0.448298,0.358638 -0.179319,0.179319 -0.627617,0.179319 l -0.627617,1.075915 q -0.358638,-0.179319 -0.717276,0.179319 -0.268979,0.358638 -0.537958,0.627617 -0.806936,-0.268979 -0.896596,0.08966 -0.08966,0.268978 -0.08966,0.537957 0.358638,0.358638 0.896596,0.268979 0.537957,-0.179319 0.986255,-0.358638 0,-0.448298 0.179319,-0.627617 0.179319,-0.268979 0.179319,-0.627617 0.537958,0 0.717277,0.717276 0,-0.268979 0.179319,-0.896596 0.179319,-0.627617 0.627617,-0.179319 0.448298,-0.179319 0.627617,-0.448298 0.179319,-0.358638 0.896596,-0.179319 0.179319,0.986256 -0.08966,1.255234 -0.268979,0.179319 0.08966,0.537958 -0.17932,0.179319 -0.537958,0.268978 -0.268979,0.08966 -0.537957,0.268979 -0.179319,0.179319 -0.268979,0.448298 -0.08966,0.179319 0.08966,0.448298 -0.358639,-0.448298 -0.896596,-0.268979 -0.448298,0.08966 -0.717277,0.179319 -0.08966,0.268979 -0.358638,0.717277 -0.268979,0.358638 -0.448298,0.627617 0,0.537957 -0.179319,1.075915 -0.179319,0.537957 -0.627617,0.896595 0.896596,0.627617 1.165574,0.717277 0.268979,0.08966 0.537958,0.08966 0.179319,-0.986256 0.268979,-1.255234 0.179319,-0.268979 0.627617,-0.17932 0.896595,-1.344893 2.331148,-1.703531 0.08966,-0.358639 0.17932,-0.537958 0.08966,-0.179319 0.537957,-0.179319 z m -6.27617,-2.958766 q -0.448298,-0.448298 -0.627617,-0.537957 -0.08966,-0.179319 -0.448298,-0.08966 -0.448298,0.537958 -0.717277,0.627617 -0.179319,0.08966 0.08966,0.268979 0.179319,-0.358638 0.717276,-0.179319 0.537958,0.179319 0.717277,-0.358639 z m -3.048426,-1.344893 q -0.358638,0 -0.717276,0.179319 -0.358639,0.08966 -0.268979,0.537957 0.448298,-0.08966 0.537957,-0.268979 0.17932,-0.268978 0.448298,-0.448297 z m 14.076553,11.745403 q -0.717277,-0.627617 -1.255234,-0.358638 -0.537957,0.268979 -1.075915,0.627617 -0.537957,0.358638 -1.075915,0.806936 -0.537957,0.358639 -1.165574,0.448298 0.448298,0.268979 0.717276,0.179319 0.358639,-0.08966 0.806937,-0.179319 0.448297,-0.806936 1.255234,-0.896596 0.896595,-0.179319 1.793191,-0.627617 z M 42.831627,43.587475 42.024691,42.959858 q 0.179319,0.627617 0.806936,0.627617 z m 15.690425,12.821319 q -0.358638,-0.537957 -0.806936,-0.986255 -0.448298,-0.537958 -0.896596,-0.986256 -0.179319,-1.075914 -0.806936,-1.524212 -0.627617,-0.537958 -0.806936,-1.613873 -0.717277,-0.179319 -1.344894,0.268979 -0.627617,0.448298 -1.165574,0.896596 1.165574,-0.627617 1.97251,-0.268979 0.806936,0.358638 0.717277,0.986255 -0.448298,0.268979 -0.806936,0.627617 -0.358639,0.268979 -0.806936,0.448298 -0.986256,0.358639 -1.434554,0.806936 -0.358638,0.358639 -0.896595,0.717277 -0.448298,0 -0.717277,0.179319 -0.268979,0.08966 -0.268979,0.448298 0.717277,-0.08966 1.165575,-0.358638 0.537957,-0.358639 1.075915,-0.537958 1.434553,0.537958 1.793191,0.896596 -0.268979,-1.075915 0,-1.075915 0.448298,-0.08966 0.986255,-0.08966 0.627617,-0.08966 0.806937,0.627617 -0.17932,0.179319 -0.448298,0.358638 -0.179319,0.179319 0,0.627617 -0.717277,0.268979 -1.165575,0.806936 -0.358638,0.448298 -1.075915,0.627617 0.17932,0.448298 0,0.627617 -0.179319,0.08966 -0.358638,0.448298 0.986255,0.08966 1.344894,-0.268979 0.358638,-0.448298 0.717276,-0.179319 0.537958,-0.806936 0.986256,-0.627617 0.986255,-0.986255 1.434553,-1.165574 0.537957,-0.17932 0.806936,-0.717277 z M 47.583584,47.263518 q -0.986255,0.627617 -1.434553,0.806936 -0.358638,0.08966 -0.717277,0.268979 -0.358638,0.179319 -0.717276,0.448297 -0.268979,0.17932 -0.268979,0.627617 0.537958,0.896596 1.434553,2.062171 0.448298,-0.17932 0.717277,-0.537958 0.268979,-0.358638 0.448298,-0.717276 -1.075915,-0.358639 -0.627617,-1.613873 0.448298,-0.08966 0.896595,-0.627617 0.448298,-0.537957 0.268979,-0.717276 z M 67.21903,69.947389 q -0.537957,-0.448297 -1.075914,-0.179319 -0.448298,0.268979 -0.896596,-0.179319 -0.627617,0.08966 -0.986255,0.448298 -0.358639,0.268979 -0.717277,0.448298 0.717277,0.179319 1.793191,0.08966 1.165575,-0.08966 1.882851,-0.627617 z M 48.928478,53.270709 q -0.627617,-0.358638 -0.896596,0 -0.268979,0.268979 -0.179319,0.627617 0.448298,-0.08966 0.537957,-0.268979 0.179319,-0.179319 0.448298,-0.358638 z m 16.587021,14.883489 q -0.896596,-0.358638 -0.806937,-0.358638 0.08966,-0.08966 -0.08966,-0.268979 -0.448298,0.08966 -0.806936,0.358638 -0.268979,0.179319 -0.537958,0.448298 -0.268978,0.179319 -0.627617,0.358638 -0.268978,0.17932 -0.717276,0.08966 0.179319,0.448298 -0.08966,0.717277 -0.179319,0.268978 -0.448298,0.448297 1.613873,-0.358638 2.24149,-0.537957 0.627617,-0.268979 1.344893,-0.358638 0.08966,-0.268979 0.179319,-0.537958 0.08966,-0.268978 0.358639,-0.358638 z m -2.062171,-3.048426 q -0.537957,-0.448297 -0.986255,0 -0.448298,0.448298 -1.075915,0.448298 -0.448298,0.537958 -0.537957,0.717277 -0.08966,0.08966 -0.448298,-0.08966 -0.986255,0.08966 -0.896596,0.268979 0.08966,0.179319 0.08966,0.627617 -0.268979,0.358638 -0.806936,0.448298 -0.448298,0.08966 -0.627617,0.358638 0.179319,0.358639 0.448298,0.08966 0.358638,-0.358638 0.806936,-0.179319 0.896595,-0.896596 1.434553,-1.165575 0.627617,-0.358638 1.075915,-0.179319 0.268978,-0.627617 1.434553,-0.448298 z m -1.882851,-2.241489 q -0.08966,-0.358638 -0.448297,-0.448298 -0.268979,-0.179319 0.179319,-0.537957 -0.627617,-0.08966 -0.806936,-0.717277 -0.627617,0.448298 -0.806937,0.627617 -0.179319,0.179319 -0.537957,0.268979 -0.268979,0 -0.537957,0.08966 -0.268979,0 -0.358639,0.268978 -0.806936,1.075915 -2.420808,1.793192 0.08966,0.448298 -0.448298,0.717276 -0.448298,0.268979 -0.537958,0.717277 1.165575,0.268979 1.793192,-0.179319 0.627617,-0.448298 1.703532,-0.358639 -0.627617,0.717277 -0.986256,0.986256 -0.268978,0.179319 -0.986255,0.08966 -0.08966,0.448298 -0.448298,0.448298 -0.268978,-0.08966 -0.448298,0.358638 0.448298,0.17932 0.717277,0.806937 0.268979,0.537957 0.717277,0.448298 0.537957,-0.627617 0.627617,-0.896596 0.08966,-0.358639 0.268978,-0.717277 0.717277,0.08966 0.986256,-0.358638 0.268978,-0.448298 0.986255,-0.537958 0.448298,-0.896595 0.896596,-0.896595 0.448298,0 0.627617,-0.358639 -0.268979,-0.179319 -0.627617,-0.358638 -0.268979,-0.179319 -0.627617,0.08966 0.08966,0.717276 -0.717277,0.717276 -0.806936,0 -1.255234,-0.179319 0.537958,-0.358638 1.255234,-0.448298 0.717277,-0.179319 1.075915,-0.806936 0.537957,0.08966 0.717277,-0.08966 0.268978,-0.17932 0.448297,-0.537958 z m -6.365829,-3.317404 q -0.358639,-0.268979 -0.627617,0 -0.179319,0.268979 -0.358639,0.448298 -0.358638,0.358638 -0.986255,0.179319 -0.179319,0.537957 -0.717276,0.717277 -0.448298,0.179319 -0.268979,0.627617 1.075915,-0.358639 1.255234,-0.448298 0.179319,-0.08966 0.268979,-0.268979 0.179319,-0.179319 0.268978,-0.268979 0.179319,-0.179319 0.448298,-0.08966 0.08966,-0.358639 0.268979,-0.448298 0.268979,-0.179319 0.448298,-0.448298 z m 3.317404,1.524213 q -0.358638,-0.179319 -0.627617,-0.08966 -0.268979,0 -0.537958,-0.358638 -0.717276,0.537957 -1.165574,0.806936 -0.358638,0.268979 -0.896596,0.08966 -0.358638,0.627617 -0.627617,0.806936 -0.179319,0.179319 -0.448298,0 0.08966,0.358638 -0.08966,0.537957 -0.179319,0.08966 -0.448298,0.179319 -0.268979,0.08966 -0.537957,0.268979 -0.268979,0.08966 -0.358639,0.448298 0.448298,0.179319 0.627617,0.537957 0.179319,0.268979 0.358639,0.717277 0.448297,0 0.537957,-0.358638 0.08966,-0.358639 0.358638,-0.537958 0.448298,-0.448298 0.896596,-0.717276 0.448298,-0.358639 1.165574,-0.08966 0.17932,-0.806936 0.717277,-1.255234 0.627617,-0.448298 1.075915,-0.986255 z m -5.558894,-2.869107 q -0.896595,-0.179319 -1.524212,0.268979 -0.627617,0.448298 -1.524213,0.627617 0.08966,0.717277 0.806936,1.075915 1.075915,-0.627617 1.165575,-0.986255 0.179319,-0.358639 0.448297,-0.537958 z M 50.363031,57.30539 q 0,-0.358639 -0.179319,-0.448298 -0.179319,-0.08966 -0.448298,0 -0.268979,0 -0.537958,0.08966 -0.268978,0 -0.448297,-0.179319 0,0.448298 0.358638,0.537958 0.358638,0 0.537957,0.358638 z m 10.041872,11.924723 q -0.806936,-0.448298 -1.434553,0 -0.627617,0.448298 -1.613873,0.627617 0.17932,0.717276 0.358639,1.255234 0.448298,0 0.627617,-0.358638 0.179319,-0.448298 0.627617,-0.17932 0.358638,-0.358638 0.627617,-0.896595 0.268979,-0.537958 0.806936,-0.448298 z m -24.297744,0.717276 q -0.358638,0.17932 -0.806936,0.358639 -0.448298,0.179319 -0.896596,0.358638 0.986255,0.179319 1.434553,0.179319 z M 46.238691,41.794284 q -0.986256,0.806936 -1.075915,0.717276 0.268978,-0.179319 0.537957,-0.268978 0.358638,-0.179319 0.537958,-0.448298 z"
     id="text1-5"
     style="font-size:91.8114px;line-height:7.58283px;font-family:'Fredericka the Great';-inkscape-font-specification:'Fredericka the Great, Normal';letter-spacing:0px;word-spacing:0.312993px;fill:#ffffff;stroke-width:0.277;stroke-linecap:square;paint-order:markers stroke fill"
     aria-label="x" />
</svg>
